<svg width="87" height="40" viewBox="0 0 87 40" fill="none" xmlns="http://www.w3.org/2000/svg">
<path d="M86.7624 19.3685C86.7624 30.0655 77.9494 22.4675 67.0781 22.4675C56.2067 22.4675 47.3937 30.0655 47.3937 19.3685C47.3937 8.67158 56.2067 0 67.0781 0C77.9494 0 86.7624 8.67158 86.7624 19.3685Z" fill="white"/>
<path d="M85.7624 19.3685C85.7624 21.9719 85.2136 23.0895 84.5932 23.5828C83.9569 24.0887 82.9072 24.2185 81.153 23.9416C80.0209 23.7629 78.773 23.4505 77.3663 23.0983C76.6137 22.9099 75.8157 22.7101 74.9656 22.5133C72.5828 21.9617 69.9078 21.4675 67.0781 21.4675C64.2483 21.4675 61.5733 21.9617 59.1905 22.5133C58.3404 22.7101 57.5424 22.9099 56.7898 23.0983C55.3831 23.4505 54.1352 23.7629 53.0032 23.9416C51.2489 24.2185 50.1992 24.0887 49.5629 23.5828C48.9425 23.0895 48.3937 21.9719 48.3937 19.3685C48.3937 9.23906 56.7436 1 67.0781 1C77.4125 1 85.7624 9.23906 85.7624 19.3685Z" stroke="#0D2B4E" stroke-opacity="0.99" stroke-width="2"/>
<path d="M47.4971 19.6594C47.7716 8.96588 56.3868 16.7804 67.2547 17.0506C78.1226 17.3207 87.1278 9.94412 86.8533 20.6377C86.5788 31.3312 77.546 39.781 66.6781 39.5109C55.8102 39.2407 47.2226 30.3529 47.4971 19.6594Z" fill="#0D2B4E" fill-opacity="0.99"/>
<g clip-path="url(#clip0_351_66)">
<path d="M71.6593 13.8795L71.8092 14.058H72.0422H73.7708C74.588 14.058 75.2392 14.7103 75.2392 15.4948V25.1791C75.2392 25.9637 74.588 26.6159 73.7708 26.6159H61.9601C61.1429 26.6159 60.4917 25.9637 60.4917 25.1791V15.4948C60.4917 14.7103 61.1429 14.058 61.9601 14.058H63.6887H63.9217L64.0716 13.8795C64.9731 12.8058 66.3354 12.1211 67.8655 12.1211C69.3955 12.1211 70.7578 12.8058 71.6593 13.8795ZM67.8585 17.6896L68.18 17.6881L68.3998 17.9171C68.5237 18.0463 68.5957 18.2143 68.5957 18.4001C68.5957 18.7852 68.2767 19.1106 67.8655 19.1106C67.4542 19.1106 67.1352 18.7852 67.1352 18.4001C67.1352 18.0152 67.4514 17.6914 67.8585 17.6896ZM68.7605 17.5709L69.7939 15.2013L67.8562 17.1896C67.1796 17.1926 66.6352 17.7343 66.6352 18.4001C66.6352 19.0689 67.1857 19.6106 67.8655 19.6106C68.5452 19.6106 69.0957 19.0689 69.0957 18.4001C69.0957 18.0793 68.9696 17.7888 68.7605 17.5709ZM67.8655 21.3212C70.3084 21.3212 72.3023 19.3708 72.3023 16.9475C72.3023 14.5241 70.3084 12.5738 67.8655 12.5738C65.4225 12.5738 63.4286 14.5241 63.4286 16.9475C63.4286 19.3708 65.4225 21.3212 67.8655 21.3212Z" fill="white" stroke="black"/>
</g>
<path d="M41.4 27.18C40.548 27.18 39.786 27.006 39.114 26.658C38.454 26.31 37.932 25.77 37.548 25.038C37.176 24.306 36.99 23.37 36.99 22.23C36.99 21.042 37.188 20.076 37.584 19.332C37.98 18.588 38.514 18.042 39.186 17.694C39.87 17.346 40.644 17.172 41.508 17.172C42 17.172 42.474 17.226 42.93 17.334C43.386 17.43 43.758 17.55 44.046 17.694L43.56 19.008C43.272 18.9 42.936 18.798 42.552 18.702C42.168 18.606 41.808 18.558 41.472 18.558C40.824 18.558 40.29 18.696 39.87 18.972C39.45 19.248 39.138 19.656 38.934 20.196C38.73 20.736 38.628 21.408 38.628 22.212C38.628 22.98 38.73 23.634 38.934 24.174C39.138 24.714 39.444 25.122 39.852 25.398C40.26 25.674 40.77 25.812 41.382 25.812C41.91 25.812 42.372 25.758 42.768 25.65C43.176 25.542 43.548 25.41 43.884 25.254V26.658C43.56 26.826 43.2 26.952 42.804 27.036C42.42 27.132 41.952 27.18 41.4 27.18Z" fill="#2288FF" fill-opacity="0.99"/>
<path d="M5.418 14.148C6.486 14.148 7.38 14.25 8.1 14.454C8.832 14.658 9.378 14.994 9.738 15.462C10.11 15.93 10.296 16.554 10.296 17.334C10.296 17.838 10.2 18.288 10.008 18.684C9.828 19.068 9.552 19.392 9.18 19.656C8.82 19.908 8.376 20.082 7.848 20.178V20.268C8.388 20.352 8.874 20.508 9.306 20.736C9.75 20.964 10.098 21.288 10.35 21.708C10.602 22.128 10.728 22.674 10.728 23.346C10.728 24.126 10.548 24.792 10.188 25.344C9.828 25.884 9.312 26.298 8.64 26.586C7.98 26.862 7.188 27 6.264 27H1.746V14.148H5.418ZM5.742 19.62C6.846 19.62 7.602 19.446 8.01 19.098C8.418 18.738 8.622 18.21 8.622 17.514C8.622 16.806 8.37 16.302 7.866 16.002C7.374 15.69 6.582 15.534 5.49 15.534H3.366V19.62H5.742ZM3.366 20.97V25.632H5.958C7.098 25.632 7.89 25.41 8.334 24.966C8.778 24.522 9 23.94 9 23.22C9 22.764 8.898 22.368 8.694 22.032C8.502 21.696 8.172 21.438 7.704 21.258C7.248 21.066 6.624 20.97 5.832 20.97H3.366ZM19.663 27L15.433 15.732H15.361C15.385 15.972 15.403 16.278 15.415 16.65C15.439 17.022 15.457 17.43 15.469 17.874C15.481 18.306 15.487 18.75 15.487 19.206V27H13.993V14.148H16.387L20.347 24.678H20.419L24.451 14.148H26.827V27H25.225V19.098C25.225 18.678 25.231 18.264 25.243 17.856C25.255 17.436 25.273 17.046 25.297 16.686C25.321 16.314 25.339 16.002 25.351 15.75H25.279L20.995 27H19.663ZM34.4811 27H29.8371V26.064L31.3491 25.722V15.444L29.8371 15.084V14.148H34.4811V15.084L32.9691 15.444V25.722L34.4811 26.064V27Z" fill="#0D2B4E" fill-opacity="0.99"/>
<path d="M71.744 9H71.534V8.052C71.534 8.01867 71.534 7.988 71.534 7.96C71.5353 7.93067 71.5367 7.90267 71.538 7.876C71.5393 7.848 71.5407 7.82133 71.542 7.796C71.5247 7.81333 71.5067 7.83 71.488 7.846C71.4693 7.862 71.448 7.88067 71.424 7.902L71.268 8.028L71.16 7.892L71.568 7.572H71.744V9ZM73.2565 9H72.2965V8.836L72.6645 8.462C72.7365 8.38867 72.7965 8.32533 72.8445 8.272C72.8925 8.21733 72.9285 8.16533 72.9525 8.116C72.9765 8.06533 72.9885 8.01067 72.9885 7.952C72.9885 7.87867 72.9672 7.824 72.9245 7.788C72.8819 7.75067 72.8265 7.732 72.7585 7.732C72.6932 7.732 72.6345 7.74467 72.5825 7.77C72.5305 7.794 72.4765 7.828 72.4205 7.872L72.3065 7.73C72.3452 7.69667 72.3865 7.66667 72.4305 7.64C72.4759 7.61333 72.5259 7.592 72.5805 7.576C72.6365 7.56 72.6979 7.552 72.7645 7.552C72.8552 7.552 72.9332 7.568 72.9985 7.6C73.0639 7.63067 73.1139 7.67467 73.1485 7.732C73.1845 7.78933 73.2025 7.85667 73.2025 7.934C73.2025 7.99133 73.1939 8.04533 73.1765 8.096C73.1592 8.14533 73.1339 8.194 73.1005 8.242C73.0685 8.29 73.0292 8.33867 72.9825 8.388C72.9359 8.43733 72.8845 8.48933 72.8285 8.544L72.5625 8.802V8.812H73.2565V9ZM74.4631 8.284C74.4631 8.4 74.4537 8.50333 74.4351 8.594C74.4177 8.68467 74.3897 8.762 74.3511 8.826C74.3137 8.88867 74.2637 8.93667 74.2011 8.97C74.1397 9.00333 74.0657 9.02 73.9791 9.02C73.8697 9.02 73.7797 8.99067 73.7091 8.932C73.6384 8.87333 73.5857 8.78933 73.5511 8.68C73.5164 8.56933 73.4991 8.43733 73.4991 8.284C73.4991 8.12933 73.5144 7.99733 73.5451 7.888C73.5771 7.77867 73.6284 7.69533 73.6991 7.638C73.7697 7.57933 73.8631 7.55 73.9791 7.55C74.0884 7.55 74.1784 7.57933 74.2491 7.638C74.3211 7.69533 74.3744 7.77867 74.4091 7.888C74.4451 7.99733 74.4631 8.12933 74.4631 8.284ZM73.7111 8.284C73.7111 8.408 73.7197 8.51133 73.7371 8.594C73.7544 8.67667 73.7824 8.73867 73.8211 8.78C73.8611 8.82133 73.9137 8.842 73.9791 8.842C74.0444 8.842 74.0964 8.822 74.1351 8.782C74.1751 8.74067 74.2037 8.67867 74.2211 8.596C74.2397 8.512 74.2491 8.408 74.2491 8.284C74.2491 8.16 74.2397 8.05733 74.2211 7.976C74.2037 7.89333 74.1751 7.83133 74.1351 7.79C74.0964 7.74867 74.0444 7.728 73.9791 7.728C73.9137 7.728 73.8611 7.74867 73.8211 7.79C73.7824 7.83133 73.7544 7.89333 73.7371 7.976C73.7197 8.05733 73.7111 8.16 73.7111 8.284ZM74.9896 8.24C74.9896 8.268 74.9883 8.3 74.9856 8.336C74.9843 8.372 74.9823 8.40533 74.9796 8.436H74.9856C74.9963 8.42267 75.0089 8.40667 75.0236 8.388C75.0396 8.368 75.0556 8.348 75.0716 8.328C75.0876 8.308 75.1023 8.29067 75.1156 8.276L75.4456 7.922H75.6916L75.2576 8.384L75.7196 9H75.4696L75.1136 8.518L74.9896 8.622V9H74.7796V7.48H74.9896V8.24ZM76.3288 7.902C76.3981 7.902 76.4608 7.91533 76.5168 7.942C76.5728 7.96867 76.6201 8.00933 76.6588 8.064H76.6688L76.6928 7.922H76.8648V9.014C76.8648 9.11533 76.8468 9.20067 76.8108 9.27C76.7748 9.33933 76.7194 9.39133 76.6448 9.426C76.5714 9.462 76.4788 9.48 76.3668 9.48C76.2894 9.48 76.2181 9.47467 76.1528 9.464C76.0874 9.45333 76.0274 9.43667 75.9728 9.414V9.228C76.0114 9.24667 76.0521 9.262 76.0948 9.274C76.1374 9.28733 76.1828 9.29667 76.2308 9.302C76.2788 9.30867 76.3281 9.312 76.3788 9.312C76.4668 9.312 76.5348 9.28667 76.5828 9.236C76.6308 9.18667 76.6548 9.11667 76.6548 9.026V8.99C76.6548 8.97267 76.6554 8.95 76.6568 8.922C76.6581 8.89267 76.6594 8.87133 76.6608 8.858H76.6528C76.6154 8.914 76.5694 8.95533 76.5148 8.982C76.4614 9.00733 76.3994 9.02 76.3288 9.02C76.1928 9.02 76.0861 8.97133 76.0088 8.874C75.9328 8.77533 75.8948 8.63867 75.8948 8.464C75.8948 8.34667 75.9121 8.24667 75.9468 8.164C75.9814 8.08 76.0308 8.01533 76.0948 7.97C76.1601 7.92467 76.2381 7.902 76.3288 7.902ZM76.3728 8.078C76.3168 8.078 76.2694 8.09333 76.2308 8.124C76.1921 8.15333 76.1628 8.19667 76.1428 8.254C76.1228 8.31133 76.1128 8.382 76.1128 8.466C76.1128 8.59133 76.1348 8.68667 76.1788 8.752C76.2241 8.81733 76.2901 8.85 76.3768 8.85C76.4274 8.85 76.4701 8.84333 76.5048 8.83C76.5408 8.81667 76.5701 8.796 76.5928 8.768C76.6168 8.74 76.6341 8.70467 76.6448 8.662C76.6568 8.618 76.6628 8.56533 76.6628 8.504V8.464C76.6628 8.372 76.6521 8.298 76.6308 8.242C76.6108 8.18467 76.5794 8.14333 76.5368 8.118C76.4941 8.09133 76.4394 8.078 76.3728 8.078Z" fill="#2288FF" fill-opacity="0.99"/>
<defs>
<clipPath id="clip0_351_66">
<rect width="15.7475" height="15.4948" fill="white" transform="translate(59.9917 11.6211)"/>
</clipPath>
</defs>
</svg>
