<svg width="40" height="40" viewBox="0 0 40 40" fill="none" xmlns="http://www.w3.org/2000/svg">
<path d="M39.7624 19.3685C39.7624 30.0655 30.9494 22.4675 20.0781 22.4675C9.20667 22.4675 0.393677 30.0655 0.393677 19.3685C0.393677 8.67158 9.20667 0 20.0781 0C30.9494 0 39.7624 8.67158 39.7624 19.3685Z" fill="white"/>
<path d="M38.7624 19.3685C38.7624 21.9719 38.2136 23.0895 37.5932 23.5828C36.9569 24.0887 35.9072 24.2185 34.153 23.9416C33.0209 23.7629 31.773 23.4505 30.3663 23.0983C29.6137 22.9099 28.8157 22.7101 27.9656 22.5133C25.5828 21.9617 22.9078 21.4675 20.0781 21.4675C17.2483 21.4675 14.5733 21.9617 12.1905 22.5133C11.3404 22.7101 10.5424 22.9099 9.78982 23.0983C8.38311 23.4505 7.13519 23.7629 6.00316 23.9416C4.24894 24.2185 3.19923 24.0887 2.56291 23.5828C1.94251 23.0895 1.39368 21.9719 1.39368 19.3685C1.39368 9.23906 9.74365 1 20.0781 1C30.4125 1 38.7624 9.23906 38.7624 19.3685Z" stroke="#0D2B4E" stroke-opacity="0.99" stroke-width="2"/>
<path d="M0.497099 19.6594C0.771639 8.96588 9.38682 16.7804 20.2547 17.0506C31.1226 17.3207 40.1278 9.94412 39.8533 20.6377C39.5788 31.3312 30.546 39.781 19.6781 39.5109C8.81019 39.2407 0.222559 30.3529 0.497099 19.6594Z" fill="#0D2B4E" fill-opacity="0.99"/>
<g clip-path="url(#clip0_351_61)">
<path d="M24.6593 13.8795L24.8092 14.058H25.0422H26.7708C27.588 14.058 28.2392 14.7103 28.2392 15.4948V25.1791C28.2392 25.9637 27.588 26.6159 26.7708 26.6159H14.9601C14.1429 26.6159 13.4917 25.9637 13.4917 25.1791V15.4948C13.4917 14.7103 14.1429 14.058 14.9601 14.058H16.6887H16.9217L17.0716 13.8795C17.9731 12.8058 19.3354 12.1211 20.8655 12.1211C22.3955 12.1211 23.7578 12.8058 24.6593 13.8795ZM20.8585 17.6896L21.18 17.6881L21.3998 17.9171C21.5237 18.0463 21.5957 18.2143 21.5957 18.4001C21.5957 18.7852 21.2767 19.1106 20.8655 19.1106C20.4542 19.1106 20.1352 18.7852 20.1352 18.4001C20.1352 18.0152 20.4514 17.6914 20.8585 17.6896ZM21.7605 17.5709L22.7939 15.2013L20.8562 17.1896C20.1796 17.1926 19.6352 17.7343 19.6352 18.4001C19.6352 19.0689 20.1857 19.6106 20.8655 19.6106C21.5452 19.6106 22.0957 19.0689 22.0957 18.4001C22.0957 18.0793 21.9696 17.7888 21.7605 17.5709ZM20.8655 21.3212C23.3084 21.3212 25.3023 19.3708 25.3023 16.9475C25.3023 14.5241 23.3084 12.5738 20.8655 12.5738C18.4225 12.5738 16.4286 14.5241 16.4286 16.9475C16.4286 19.3708 18.4225 21.3212 20.8655 21.3212Z" fill="white" stroke="black"/>
</g>
<path d="M24.744 9H24.534V8.052C24.534 8.01867 24.534 7.988 24.534 7.96C24.5353 7.93067 24.5367 7.90267 24.538 7.876C24.5393 7.848 24.5407 7.82133 24.542 7.796C24.5247 7.81333 24.5067 7.83 24.488 7.846C24.4693 7.862 24.448 7.88067 24.424 7.902L24.268 8.028L24.16 7.892L24.568 7.572H24.744V9ZM26.2565 9H25.2965V8.836L25.6645 8.462C25.7365 8.38867 25.7965 8.32533 25.8445 8.272C25.8925 8.21733 25.9285 8.16533 25.9525 8.116C25.9765 8.06533 25.9885 8.01067 25.9885 7.952C25.9885 7.87867 25.9672 7.824 25.9245 7.788C25.8819 7.75067 25.8265 7.732 25.7585 7.732C25.6932 7.732 25.6345 7.74467 25.5825 7.77C25.5305 7.794 25.4765 7.828 25.4205 7.872L25.3065 7.73C25.3452 7.69667 25.3865 7.66667 25.4305 7.64C25.4759 7.61333 25.5259 7.592 25.5805 7.576C25.6365 7.56 25.6979 7.552 25.7645 7.552C25.8552 7.552 25.9332 7.568 25.9985 7.6C26.0639 7.63067 26.1139 7.67467 26.1485 7.732C26.1845 7.78933 26.2025 7.85667 26.2025 7.934C26.2025 7.99133 26.1939 8.04533 26.1765 8.096C26.1592 8.14533 26.1339 8.194 26.1005 8.242C26.0685 8.29 26.0292 8.33867 25.9825 8.388C25.9359 8.43733 25.8845 8.48933 25.8285 8.544L25.5625 8.802V8.812H26.2565V9ZM27.4631 8.284C27.4631 8.4 27.4537 8.50333 27.4351 8.594C27.4177 8.68467 27.3897 8.762 27.3511 8.826C27.3137 8.88867 27.2637 8.93667 27.2011 8.97C27.1397 9.00333 27.0657 9.02 26.9791 9.02C26.8697 9.02 26.7797 8.99067 26.7091 8.932C26.6384 8.87333 26.5857 8.78933 26.5511 8.68C26.5164 8.56933 26.4991 8.43733 26.4991 8.284C26.4991 8.12933 26.5144 7.99733 26.5451 7.888C26.5771 7.77867 26.6284 7.69533 26.6991 7.638C26.7697 7.57933 26.8631 7.55 26.9791 7.55C27.0884 7.55 27.1784 7.57933 27.2491 7.638C27.3211 7.69533 27.3744 7.77867 27.4091 7.888C27.4451 7.99733 27.4631 8.12933 27.4631 8.284ZM26.7111 8.284C26.7111 8.408 26.7197 8.51133 26.7371 8.594C26.7544 8.67667 26.7824 8.73867 26.8211 8.78C26.8611 8.82133 26.9137 8.842 26.9791 8.842C27.0444 8.842 27.0964 8.822 27.1351 8.782C27.1751 8.74067 27.2037 8.67867 27.2211 8.596C27.2397 8.512 27.2491 8.408 27.2491 8.284C27.2491 8.16 27.2397 8.05733 27.2211 7.976C27.2037 7.89333 27.1751 7.83133 27.1351 7.79C27.0964 7.74867 27.0444 7.728 26.9791 7.728C26.9137 7.728 26.8611 7.74867 26.8211 7.79C26.7824 7.83133 26.7544 7.89333 26.7371 7.976C26.7197 8.05733 26.7111 8.16 26.7111 8.284ZM27.9896 8.24C27.9896 8.268 27.9883 8.3 27.9856 8.336C27.9843 8.372 27.9823 8.40533 27.9796 8.436H27.9856C27.9963 8.42267 28.0089 8.40667 28.0236 8.388C28.0396 8.368 28.0556 8.348 28.0716 8.328C28.0876 8.308 28.1023 8.29067 28.1156 8.276L28.4456 7.922H28.6916L28.2576 8.384L28.7196 9H28.4696L28.1136 8.518L27.9896 8.622V9H27.7796V7.48H27.9896V8.24ZM29.3288 7.902C29.3981 7.902 29.4608 7.91533 29.5168 7.942C29.5728 7.96867 29.6201 8.00933 29.6588 8.064H29.6688L29.6928 7.922H29.8648V9.014C29.8648 9.11533 29.8468 9.20067 29.8108 9.27C29.7748 9.33933 29.7194 9.39133 29.6448 9.426C29.5714 9.462 29.4788 9.48 29.3668 9.48C29.2894 9.48 29.2181 9.47467 29.1528 9.464C29.0874 9.45333 29.0274 9.43667 28.9728 9.414V9.228C29.0114 9.24667 29.0521 9.262 29.0948 9.274C29.1374 9.28733 29.1828 9.29667 29.2308 9.302C29.2788 9.30867 29.3281 9.312 29.3788 9.312C29.4668 9.312 29.5348 9.28667 29.5828 9.236C29.6308 9.18667 29.6548 9.11667 29.6548 9.026V8.99C29.6548 8.97267 29.6554 8.95 29.6568 8.922C29.6581 8.89267 29.6594 8.87133 29.6608 8.858H29.6528C29.6154 8.914 29.5694 8.95533 29.5148 8.982C29.4614 9.00733 29.3994 9.02 29.3288 9.02C29.1928 9.02 29.0861 8.97133 29.0088 8.874C28.9328 8.77533 28.8948 8.63867 28.8948 8.464C28.8948 8.34667 28.9121 8.24667 28.9468 8.164C28.9814 8.08 29.0308 8.01533 29.0948 7.97C29.1601 7.92467 29.2381 7.902 29.3288 7.902ZM29.3728 8.078C29.3168 8.078 29.2694 8.09333 29.2308 8.124C29.1921 8.15333 29.1628 8.19667 29.1428 8.254C29.1228 8.31133 29.1128 8.382 29.1128 8.466C29.1128 8.59133 29.1348 8.68667 29.1788 8.752C29.2241 8.81733 29.2901 8.85 29.3768 8.85C29.4274 8.85 29.4701 8.84333 29.5048 8.83C29.5408 8.81667 29.5701 8.796 29.5928 8.768C29.6168 8.74 29.6341 8.70467 29.6448 8.662C29.6568 8.618 29.6628 8.56533 29.6628 8.504V8.464C29.6628 8.372 29.6521 8.298 29.6308 8.242C29.6108 8.18467 29.5794 8.14333 29.5368 8.118C29.4941 8.09133 29.4394 8.078 29.3728 8.078Z" fill="#2288FF" fill-opacity="0.99"/>
<defs>
<clipPath id="clip0_351_61">
<rect width="15.7475" height="15.4948" fill="white" transform="translate(12.9917 11.6211)"/>
</clipPath>
</defs>
</svg>
